<svg width="19" height="14" viewBox="0 0 19 14" fill="none" xmlns="http://www.w3.org/2000/svg">
<path d="M9.83302 4.49938C9.16982 4.49938 8.53377 4.76284 8.06481 5.2318C7.59585 5.70076 7.3324 6.3368 7.3324 7.00001C7.3324 7.66321 7.59585 8.29926 8.06481 8.76822C8.53377 9.23717 9.16982 9.50063 9.83302 9.50063C10.4962 9.50063 11.1323 9.23717 11.6012 8.76822C12.0702 8.29926 12.3336 7.66321 12.3336 7.00001C12.3336 6.3368 12.0702 5.70076 11.6012 5.2318C11.1323 4.76284 10.4962 4.49938 9.83302 4.49938ZM9.83302 11.1677C8.72768 11.1677 7.6676 10.7286 6.88601 9.94702C6.10441 9.16543 5.66531 8.10535 5.66531 7.00001C5.66531 5.89466 6.10441 4.83459 6.88601 4.05299C7.6676 3.27139 8.72768 2.8323 9.83302 2.8323C10.9384 2.8323 11.9984 3.27139 12.78 4.05299C13.5616 4.83459 14.0007 5.89466 14.0007 7.00001C14.0007 8.10535 13.5616 9.16543 12.78 9.94702C11.9984 10.7286 10.9384 11.1677 9.83302 11.1677ZM9.83302 0.748444C5.66531 0.748444 2.10609 3.34076 0.664062 7.00001C2.10609 10.6593 5.66531 13.2516 9.83302 13.2516C14.0007 13.2516 17.56 10.6593 19.002 7.00001C17.56 3.34076 14.0007 0.748444 9.83302 0.748444Z" fill="#D2D2D2"/>
</svg>
