<svg width="24" height="25" viewBox="0 0 24 25" fill="none" xmlns="http://www.w3.org/2000/svg">
<path d="M20.597 4.59998V6.79998C20.597 7.59998 20.097 8.59998 19.597 9.09998L15.297 12.9C14.697 13.4 14.297 14.4 14.297 15.2V19.5C14.297 20.1 13.897 20.9 13.397 21.2L11.997 22.1C10.697 22.9 8.89696 22 8.89696 20.4V15.1C8.89696 14.4 8.49696 13.5 8.09696 13L7.62696 12.51C7.31696 12.18 7.25696 11.68 7.50696 11.29L12.627 3.06998C12.807 2.77998 13.127 2.59998 13.477 2.59998H18.597C19.697 2.59998 20.597 3.49998 20.597 4.59998Z" fill="#999999"/>
<path d="M10.3484 4.12998L6.79844 9.81998C6.45844 10.37 5.67844 10.45 5.22844 9.97998L4.29844 8.99998C3.79844 8.49998 3.39844 7.59998 3.39844 6.99998V4.69998C3.39844 3.49998 4.29844 2.59998 5.39844 2.59998H9.49844C10.2784 2.59998 10.7584 3.45998 10.3484 4.12998Z" fill="#999999"/>
</svg>
