<svg width="44" height="44" viewBox="0 0 44 44" fill="none" xmlns="http://www.w3.org/2000/svg">
<rect x="0.5" y="0.5" width="43" height="43" rx="21.5" stroke="white"/>
<path d="M22.1625 20.87C22.0625 20.86 21.9425 20.86 21.8325 20.87C19.4525 20.79 17.5625 18.84 17.5625 16.44C17.5625 13.99 19.5425 12 22.0025 12C24.4525 12 26.4425 13.99 26.4425 16.44C26.4325 18.84 24.5425 20.79 22.1625 20.87Z" stroke="white" stroke-width="1.5" stroke-linecap="round" stroke-linejoin="round"/>
<path d="M17.1588 24.56C14.7387 26.18 14.7387 28.82 17.1588 30.43C19.9088 32.27 24.4188 32.27 27.1688 30.43C29.5888 28.81 29.5888 26.17 27.1688 24.56C24.4288 22.73 19.9188 22.73 17.1588 24.56Z" stroke="white" stroke-width="1.5" stroke-linecap="round" stroke-linejoin="round"/>
</svg>
